STARTFONT 2.1
FONT -sun-timmons-medium-r-normal--14-140-75-75-p-79-adobe-fontspecific
SIZE 14 75 75
FONTBOUNDINGBOX 17 17 -3 -3

STARTPROPERTIES 28
FOUNDRY "sun"
FAMILY_NAME "timmons"
WEIGHT_NAME "medium"
SLANT "r"
SETWIDTH_NAME "normal"
ADD_STYLE_NAME ""
PIXEL_SIZE 15
POINT_SIZE 140
RESOLUTION_X 75
RESOLUTION_Y 75
SPACING "p"
AVERAGE_WIDTH 79
CHARSET_REGISTRY "adobe"
CHARSET_ENCODING "fontspecific"
COPYRIGHT "© 1999 Sun Microsystems, Inc."
RAW_PIXELSIZE 1000
RAW_POINTSIZE 964
RAW_ASCENT 932
RAW_DESCENT 196
RAW_AVERAGE_WIDTH 5454
FACE_NAME "TimmonsNormalnsB5"
_XMBDFED_INFO "Edited with xmbdfed 2.4."
WEIGHT 10
X_HEIGHT -1
QUAD_WIDTH 8
DEFAULT_CHAR 4
FONT_DESCENT 3
FONT_ASCENT 14
ENDPROPERTIES

CHARS 214

STARTCHAR char32
ENCODING 32
SWIDTH 30 0
DWIDTH 5 0
BBX 0 0 0 0
BITMAP
ENDCHAR

STARTCHAR char33
ENCODING 33
SWIDTH 24 0
DWIDTH 4 0
BBX 3 10 1 0
BITMAP
40
40
40
40
40
40
40
00
40
40
ENDCHAR

STARTCHAR char34
ENCODING 34
SWIDTH 36 0
DWIDTH 6 0
BBX 5 4 0 6
BITMAP
F8
F8
78
90
ENDCHAR

STARTCHAR char35
ENCODING 35
SWIDTH 49 0
DWIDTH 8 0
BBX 7 11 0 0
BITMAP
24
24
24
FE
24
24
28
FE
48
48
48
ENDCHAR

STARTCHAR char36
ENCODING 36
SWIDTH 43 0
DWIDTH 7 0
BBX 7 14 0 -2
BITMAP
10
10
7E
52
52
70
38
1C
14
96
96
FC
10
10
ENDCHAR

STARTCHAR char37
ENCODING 37
SWIDTH 5 0
DWIDTH 11 0
BBX 10 10 0 0
BITMAP
6100
9200
9200
9580
9540
9640
6A40
0A40
1240
1180
ENDCHAR

STARTCHAR char38
ENCODING 38
SWIDTH 5 0
DWIDTH 11 0
BBX 11 10 0 0
BITMAP
1C00
1200
1600
19C0
1900
6900
4D00
8600
C760
7980
ENDCHAR

STARTCHAR char39
ENCODING 39
SWIDTH 18 0
DWIDTH 3 0
BBX 3 4 0 6
BITMAP
40
80
E0
E0
ENDCHAR

STARTCHAR char40
ENCODING 40
SWIDTH 30 0
DWIDTH 5 0
BBX 3 14 1 -3
BITMAP
20
20
40
40
80
80
80
80
80
80
40
40
20
20
ENDCHAR

STARTCHAR char41
ENCODING 41
SWIDTH 30 0
DWIDTH 5 0
BBX 4 14 0 -3
BITMAP
80
40
20
20
10
10
10
10
10
30
20
20
C0
80
ENDCHAR

STARTCHAR char42
ENCODING 42
SWIDTH 36 0
DWIDTH 6 0
BBX 6 5 0 5
BITMAP
20
F8
20
F8
20
ENDCHAR

STARTCHAR char43
ENCODING 43
SWIDTH 61 0
DWIDTH 10 0
BBX 9 9 0 0
BITMAP
0800
0800
0800
0800
FF80
0800
0800
0800
0800
ENDCHAR

STARTCHAR char44
ENCODING 44
SWIDTH 18 0
DWIDTH 3 0
BBX 2 5 1 -3
BITMAP
C0
C0
40
C0
80
ENDCHAR

STARTCHAR char45
ENCODING 45
SWIDTH 24 0
DWIDTH 4 0
BBX 4 1 0 3
BITMAP
F0
ENDCHAR

STARTCHAR char46
ENCODING 46
SWIDTH 18 0
DWIDTH 3 0
BBX 1 2 1 0
BITMAP
80
80
ENDCHAR

STARTCHAR char47
ENCODING 47
SWIDTH 36 0
DWIDTH 6 0
BBX 6 10 0 0
BITMAP
08
08
10
10
30
20
20
40
40
C0
ENDCHAR

STARTCHAR char48
ENCODING 48
SWIDTH 43 0
DWIDTH 7 0
BBX 6 10 0 0
BITMAP
78
48
84
84
84
84
84
C4
48
38
ENDCHAR

STARTCHAR char49
ENCODING 49
SWIDTH 43 0
DWIDTH 7 0
BBX 5 11 1 0
BITMAP
20
E0
20
20
20
20
20
20
20
20
F8
ENDCHAR

STARTCHAR char50
ENCODING 50
SWIDTH 43 0
DWIDTH 7 0
BBX 7 10 0 0
BITMAP
38
4C
04
04
08
08
10
20
42
FC
ENDCHAR

STARTCHAR char51
ENCODING 51
SWIDTH 43 0
DWIDTH 7 0
BBX 6 10 0 0
BITMAP
78
48
08
08
38
0C
04
04
48
F0
ENDCHAR

STARTCHAR char52
ENCODING 52
SWIDTH 43 0
DWIDTH 7 0
BBX 6 11 0 0
BITMAP
08
08
18
18
28
48
48
FC
08
08
08
ENDCHAR

STARTCHAR char53
ENCODING 53
SWIDTH 43 0
DWIDTH 7 0
BBX 6 10 0 0
BITMAP
3C
20
40
70
18
0C
04
04
08
70
ENDCHAR

STARTCHAR char54
ENCODING 54
SWIDTH 43 0
DWIDTH 7 0
BBX 6 11 0 0
BITMAP
0C
10
20
40
78
C8
C4
84
84
44
78
ENDCHAR

STARTCHAR char55
ENCODING 55
SWIDTH 43 0
DWIDTH 7 0
BBX 6 10 0 0
BITMAP
7C
84
04
08
08
08
10
10
10
20
ENDCHAR

STARTCHAR char56
ENCODING 56
SWIDTH 43 0
DWIDTH 7 0
BBX 5 10 1 0
BITMAP
70
88
88
50
60
70
98
88
88
70
ENDCHAR

STARTCHAR char57
ENCODING 57
SWIDTH 43 0
DWIDTH 7 0
BBX 6 10 0 0
BITMAP
78
84
84
84
CC
74
0C
08
10
20
ENDCHAR

STARTCHAR char58
ENCODING 58
SWIDTH 24 0
DWIDTH 4 0
BBX 1 7 2 0
BITMAP
80
80
00
00
00
80
80
ENDCHAR

STARTCHAR char59
ENCODING 59
SWIDTH 24 0
DWIDTH 4 0
BBX 3 10 1 -3
BITMAP
C0
C0
00
00
00
E0
E0
20
40
80
ENDCHAR

STARTCHAR char60
ENCODING 60
SWIDTH 49 0
DWIDTH 8 0
BBX 8 7 0 0
BITMAP
07
18
60
C0
30
0C
03
ENDCHAR

STARTCHAR char61
ENCODING 61
SWIDTH 61 0
DWIDTH 10 0
BBX 9 4 0 2
BITMAP
FF80
0000
0000
FF80
ENDCHAR

STARTCHAR char62
ENCODING 62
SWIDTH 49 0
DWIDTH 8 0
BBX 8 7 0 0
BITMAP
C0
38
06
03
0C
30
C0
ENDCHAR

STARTCHAR char63
ENCODING 63
SWIDTH 36 0
DWIDTH 6 0
BBX 4 10 1 0
BITMAP
F0
90
90
10
20
60
40
00
40
40
ENDCHAR

STARTCHAR char64
ENCODING 64
SWIDTH 36 0
DWIDTH 16 0
BBX 11 11 2 0
BITMAP
0F00
3180
4040
4FA0
9120
A120
A340
B240
5F80
20C0
1F00
ENDCHAR

STARTCHAR char65
ENCODING 65
SWIDTH 5 0
DWIDTH 11 0
BBX 10 10 0 0
BITMAP
0400
0C00
0C00
1400
1200
1200
3F00
2100
2180
41C0
ENDCHAR

STARTCHAR char66
ENCODING 66
SWIDTH 55 0
DWIDTH 9 0
BBX 8 10 0 0
BITMAP
FE
21
21
23
3C
23
21
21
23
FE
ENDCHAR

STARTCHAR char67
ENCODING 67
SWIDTH 61 0
DWIDTH 10 0
BBX 9 10 1 0
BITMAP
3F00
4100
4100
8000
8000
8000
8000
4080
6100
1E00
ENDCHAR

STARTCHAR char68
ENCODING 68
SWIDTH 5 0
DWIDTH 11 0
BBX 10 10 0 0
BITMAP
FF00
2080
20C0
2040
2040
2040
2040
20C0
2180
FE00
ENDCHAR

STARTCHAR char69
ENCODING 69
SWIDTH 55 0
DWIDTH 9 0
BBX 9 10 0 0
BITMAP
7F00
2100
2000
2200
3E00
2200
2000
2080
2180
FF00
ENDCHAR

STARTCHAR char70
ENCODING 70
SWIDTH 55 0
DWIDTH 9 0
BBX 9 10 0 0
BITMAP
FF00
2080
2000
2100
3F00
2100
2000
2000
2000
7800
ENDCHAR

STARTCHAR char71
ENCODING 71
SWIDTH 11 0
DWIDTH 12 0
BBX 10 10 1 0
BITMAP
3F00
4100
8100
8000
83C0
8180
8180
4180
6100
1E00
ENDCHAR

STARTCHAR char72
ENCODING 72
SWIDTH 5 0
DWIDTH 11 0
BBX 11 10 0 0
BITMAP
7180
2080
2080
2080
3F80
2080
2080
2080
2080
F3C0
ENDCHAR

STARTCHAR char73
ENCODING 73
SWIDTH 30 0
DWIDTH 5 0
BBX 5 10 0 0
BITMAP
F8
20
20
20
20
20
20
20
20
F0
ENDCHAR

STARTCHAR char74
ENCODING 74
SWIDTH 36 0
DWIDTH 6 0
BBX 6 10 0 0
BITMAP
7C
10
10
10
10
10
10
10
90
E0
ENDCHAR

STARTCHAR char75
ENCODING 75
SWIDTH 5 0
DWIDTH 11 0
BBX 11 10 0 0
BITMAP
F1E0
2300
2400
2800
3800
2C00
2600
2700
2380
F3E0
ENDCHAR

STARTCHAR char76
ENCODING 76
SWIDTH 55 0
DWIDTH 9 0
BBX 9 10 0 0
BITMAP
7800
2000
2000
2000
2000
2000
2000
2080
2080
FF00
ENDCHAR

STARTCHAR char77
ENCODING 77
SWIDTH 23 0
DWIDTH 14 0
BBX 13 10 0 0
BITMAP
6038
7060
7060
58A0
58A0
4D20
4D20
4620
4620
E270
ENDCHAR

STARTCHAR char78
ENCODING 78
SWIDTH 5 0
DWIDTH 11 0
BBX 11 10 0 0
BITMAP
E080
7080
5080
5880
4C80
4680
4380
4180
4180
E080
ENDCHAR

STARTCHAR char79
ENCODING 79
SWIDTH 5 0
DWIDTH 11 0
BBX 9 10 1 0
BITMAP
3C00
4200
8100
8100
8180
8100
8100
4100
4200
3C00
ENDCHAR

STARTCHAR char80
ENCODING 80
SWIDTH 49 0
DWIDTH 8 0
BBX 8 10 0 0
BITMAP
FE
23
21
23
26
3C
20
20
20
F0
ENDCHAR

STARTCHAR char81
ENCODING 81
SWIDTH 5 0
DWIDTH 11 0
BBX 9 13 1 -3
BITMAP
3C00
4200
8100
8100
8100
8100
8100
4100
4200
3C00
1C00
0600
0180
ENDCHAR

STARTCHAR char82
ENCODING 82
SWIDTH 61 0
DWIDTH 10 0
BBX 10 10 0 0
BITMAP
FE00
2300
2100
2300
3C00
2C00
2600
2300
2100
F0C0
ENDCHAR

STARTCHAR char83
ENCODING 83
SWIDTH 49 0
DWIDTH 8 0
BBX 6 11 1 0
BITMAP
08
78
84
84
E0
70
18
0C
84
84
F8
ENDCHAR

STARTCHAR char84
ENCODING 84
SWIDTH 61 0
DWIDTH 10 0
BBX 9 10 0 0
BITMAP
FF80
8880
0800
0800
0800
0800
0800
0800
0800
1C00
ENDCHAR

STARTCHAR char85
ENCODING 85
SWIDTH 5 0
DWIDTH 11 0
BBX 11 11 0 0
BITMAP
60C0
60C0
2040
2040
2040
2040
2040
2040
2040
2080
1F00
ENDCHAR

STARTCHAR char86
ENCODING 86
SWIDTH 5 0
DWIDTH 11 0
BBX 10 10 0 0
BITMAP
F0C0
2080
2080
3100
1100
1A00
0A00
0C00
0C00
0400
ENDCHAR

STARTCHAR char87
ENCODING 87
SWIDTH 29 0
DWIDTH 15 0
BBX 14 10 0 0
BITMAP
6608
2208
2310
2310
1590
15A0
14E0
08C0
08C0
0840
ENDCHAR

STARTCHAR char88
ENCODING 88
SWIDTH 5 0
DWIDTH 11 0
BBX 11 10 -1 0
BITMAP
FCE0
3880
1900
0E00
0600
0600
0B00
1180
2180
61E0
ENDCHAR

STARTCHAR char89
ENCODING 89
SWIDTH 5 0
DWIDTH 11 0
BBX 10 10 0 0
BITMAP
60C0
2100
2100
1200
0C00
0800
0800
0800
0800
1E00
ENDCHAR

STARTCHAR char90
ENCODING 90
SWIDTH 55 0
DWIDTH 9 0
BBX 9 10 0 0
BITMAP
7F00
4300
0600
0C00
0800
1800
3000
6080
4080
FF00
ENDCHAR

STARTCHAR char91
ENCODING 91
SWIDTH 24 0
DWIDTH 4 0
BBX 3 12 1 -2
BITMAP
E0
80
80
80
80
80
80
80
80
80
80
E0
ENDCHAR

STARTCHAR char92
ENCODING 92
SWIDTH 24 0
DWIDTH 4 0
BBX 4 11 0 0
BITMAP
80
80
80
40
40
40
20
20
20
10
10
ENDCHAR

STARTCHAR char93
ENCODING 93
SWIDTH 24 0
DWIDTH 4 0
BBX 3 12 0 -2
BITMAP
E0
20
20
20
20
20
20
20
20
20
20
E0
ENDCHAR

STARTCHAR char94
ENCODING 94
SWIDTH 0 0
DWIDTH 0 0
BBX 4 2 -2 11
BITMAP
60
90
ENDCHAR

STARTCHAR char95
ENCODING 95
SWIDTH 55 0
DWIDTH 9 0
BBX 8 1 0 -2
BITMAP
FF
ENDCHAR

STARTCHAR char96
ENCODING 96
SWIDTH 0 0
DWIDTH 0 0
BBX 3 2 -2 8
BITMAP
40
40
ENDCHAR

STARTCHAR char97
ENCODING 97
SWIDTH 43 0
DWIDTH 7 0
BBX 7 7 0 0
BITMAP
78
C8
08
78
88
98
EC
ENDCHAR

STARTCHAR char98
ENCODING 98
SWIDTH 49 0
DWIDTH 8 0
BBX 7 10 0 0
BITMAP
C0
40
40
7C
46
42
42
42
44
38
ENDCHAR

STARTCHAR char99
ENCODING 99
SWIDTH 36 0
DWIDTH 6 0
BBX 6 7 0 0
BITMAP
38
4C
80
80
C4
E4
38
ENDCHAR

STARTCHAR char100
ENCODING 100
SWIDTH 49 0
DWIDTH 8 0
BBX 6 10 1 0
BITMAP
10
08
08
78
88
88
88
88
88
7C
ENDCHAR

STARTCHAR char101
ENCODING 101
SWIDTH 43 0
DWIDTH 7 0
BBX 6 7 0 0
BITMAP
78
84
FC
80
C4
64
38
ENDCHAR

STARTCHAR char102
ENCODING 102
SWIDTH 24 0
DWIDTH 4 0
BBX 6 11 0 0
BITMAP
1C
24
20
20
70
60
60
60
60
60
E0
ENDCHAR

STARTCHAR char103
ENCODING 103
SWIDTH 43 0
DWIDTH 7 0
BBX 7 9 0 -2
BITMAP
3C
48
48
48
30
40
7C
4E
70
ENDCHAR

STARTCHAR char104
ENCODING 104
SWIDTH 49 0
DWIDTH 8 0
BBX 8 10 0 0
BITMAP
C0
40
40
7C
46
46
46
46
46
EE
ENDCHAR

STARTCHAR char105
ENCODING 105
SWIDTH 24 0
DWIDTH 4 0
BBX 4 10 0 0
BITMAP
40
40
00
40
40
40
40
40
40
E0
ENDCHAR

STARTCHAR char106
ENCODING 106
SWIDTH 18 0
DWIDTH 3 0
BBX 3 12 -1 -2
BITMAP
20
20
00
20
20
20
20
20
20
20
20
C0
ENDCHAR

STARTCHAR char107
ENCODING 107
SWIDTH 43 0
DWIDTH 7 0
BBX 8 10 0 0
BITMAP
C0
40
40
4E
48
50
70
58
4C
EF
ENDCHAR

STARTCHAR char108
ENCODING 108
SWIDTH 24 0
DWIDTH 4 0
BBX 4 10 0 0
BITMAP
C0
40
40
40
40
40
40
40
40
E0
ENDCHAR

STARTCHAR char109
ENCODING 109
SWIDTH 11 0
DWIDTH 12 0
BBX 12 7 0 0
BITMAP
FFC0
4420
4420
4420
4420
4420
4670
ENDCHAR

STARTCHAR char110
ENCODING 110
SWIDTH 49 0
DWIDTH 8 0
BBX 8 7 0 0
BITMAP
DC
66
42
42
42
42
6F
ENDCHAR

STARTCHAR char111
ENCODING 111
SWIDTH 49 0
DWIDTH 8 0
BBX 6 7 1 0
BITMAP
78
8C
84
84
84
88
70
ENDCHAR

STARTCHAR char112
ENCODING 112
SWIDTH 43 0
DWIDTH 7 0
BBX 7 9 0 -2
BITMAP
FC
46
42
42
42
64
58
40
E0
ENDCHAR

STARTCHAR char113
ENCODING 113
SWIDTH 49 0
DWIDTH 8 0
BBX 7 9 1 -2
BITMAP
78
48
88
88
88
D8
68
08
0C
ENDCHAR

STARTCHAR char114
ENCODING 114
SWIDTH 30 0
DWIDTH 5 0
BBX 5 7 0 0
BITMAP
D8
60
40
40
40
40
F0
ENDCHAR

STARTCHAR char115
ENCODING 115
SWIDTH 36 0
DWIDTH 6 0
BBX 5 7 0 0
BITMAP
78
88
E0
70
18
88
F0
ENDCHAR

STARTCHAR char116
ENCODING 116
SWIDTH 24 0
DWIDTH 4 0
BBX 5 9 0 0
BITMAP
40
40
F0
40
40
40
40
48
70
ENDCHAR

STARTCHAR char117
ENCODING 117
SWIDTH 49 0
DWIDTH 8 0
BBX 8 7 0 0
BITMAP
CC
44
44
44
44
4C
76
ENDCHAR

STARTCHAR char118
ENCODING 118
SWIDTH 43 0
DWIDTH 7 0
BBX 6 7 0 0
BITMAP
64
44
28
28
28
10
10
ENDCHAR

STARTCHAR char119
ENCODING 119
SWIDTH 61 0
DWIDTH 10 0
BBX 10 7 0 0
BITMAP
C840
4840
6C80
3480
3700
3200
1200
ENDCHAR

STARTCHAR char120
ENCODING 120
SWIDTH 43 0
DWIDTH 7 0
BBX 7 7 0 0
BITMAP
46
28
30
10
38
4C
CE
ENDCHAR

STARTCHAR char121
ENCODING 121
SWIDTH 43 0
DWIDTH 7 0
BBX 7 9 0 -2
BITMAP
FE
44
24
28
28
10
10
20
C0
ENDCHAR

STARTCHAR char122
ENCODING 122
SWIDTH 43 0
DWIDTH 7 0
BBX 6 7 0 0
BITMAP
7C
48
10
30
20
44
FC
ENDCHAR

STARTCHAR char123
ENCODING 123
SWIDTH 30 0
DWIDTH 5 0
BBX 3 13 1 -3
BITMAP
60
40
40
40
40
80
80
40
40
40
40
40
20
ENDCHAR

STARTCHAR char124
ENCODING 124
SWIDTH 24 0
DWIDTH 4 0
BBX 1 11 1 0
BITMAP
80
80
80
80
80
80
80
80
80
80
80
ENDCHAR

STARTCHAR char125
ENCODING 125
SWIDTH 30 0
DWIDTH 5 0
BBX 3 13 1 -3
BITMAP
C0
40
40
40
40
20
20
40
40
40
40
40
80
ENDCHAR

STARTCHAR char126
ENCODING 126
SWIDTH 0 0
DWIDTH 0 0
BBX 6 2 -3 11
BITMAP
78
50
ENDCHAR

STARTCHAR char128
ENCODING 128
SWIDTH 43 0
DWIDTH 7 0
BBX 7 10 0 0
BITMAP
1C
22
22
40
FC
FC
40
40
22
1C
ENDCHAR

STARTCHAR char130
ENCODING 130
SWIDTH 18 0
DWIDTH 3 0
BBX 2 5 1 -3
BITMAP
C0
C0
40
C0
80
ENDCHAR

STARTCHAR char131
ENCODING 131
SWIDTH 0 0
DWIDTH 0 0
BBX 4 2 -2 11
BITMAP
60
90
ENDCHAR

STARTCHAR char132
ENCODING 132
SWIDTH 36 0
DWIDTH 6 0
BBX 5 4 0 -2
BITMAP
F8
F8
28
E8
ENDCHAR

STARTCHAR char133
ENCODING 133
SWIDTH 36 0
DWIDTH 16 0
BBX 10 2 2 0
BITMAP
8840
8840
ENDCHAR

STARTCHAR char134
ENCODING 134
SWIDTH 43 0
DWIDTH 7 0
BBX 6 12 0 -2
BITMAP
30
30
EC
14
30
30
10
10
10
10
10
10
ENDCHAR

STARTCHAR char135
ENCODING 135
SWIDTH 29 0
DWIDTH 15 0
BBX 0 0 0 0
BITMAP
ENDCHAR

STARTCHAR char136
ENCODING 136
SWIDTH 0 0
DWIDTH 0 0
BBX 4 2 -2 8
BITMAP
60
90
ENDCHAR

STARTCHAR char137
ENCODING 137
SWIDTH 29 0
DWIDTH 15 0
BBX 0 0 0 0
BITMAP
ENDCHAR

STARTCHAR char138
ENCODING 138
SWIDTH 29 0
DWIDTH 15 0
BBX 0 0 0 0
BITMAP
ENDCHAR

STARTCHAR char139
ENCODING 139
SWIDTH 30 0
DWIDTH 5 0
BBX 3 4 1 2
BITMAP
60
C0
C0
60
ENDCHAR

STARTCHAR char140
ENCODING 140
SWIDTH 29 0
DWIDTH 15 0
BBX 13 10 1 0
BITMAP
3FF0
4210
8200
8210
83E0
8210
8200
4208
4208
3FF0
ENDCHAR

STARTCHAR char141
ENCODING 141
SWIDTH 29 0
DWIDTH 15 0
BBX 0 0 0 0
BITMAP
ENDCHAR

STARTCHAR char143
ENCODING 143
SWIDTH 29 0
DWIDTH 15 0
BBX 0 0 0 0
BITMAP
ENDCHAR

STARTCHAR char145
ENCODING 145
SWIDTH 18 0
DWIDTH 3 0
BBX 3 4 0 6
BITMAP
40
80
E0
E0
ENDCHAR

STARTCHAR char146
ENCODING 146
SWIDTH 18 0
DWIDTH 3 0
BBX 2 4 1 6
BITMAP
C0
C0
C0
80
ENDCHAR

STARTCHAR char147
ENCODING 147
SWIDTH 36 0
DWIDTH 6 0
BBX 6 4 0 6
BITMAP
7C
90
D8
58
ENDCHAR

STARTCHAR char148
ENCODING 148
SWIDTH 36 0
DWIDTH 6 0
BBX 5 4 0 6
BITMAP
F8
F8
78
90
ENDCHAR

STARTCHAR char149
ENCODING 149
SWIDTH 30 0
DWIDTH 5 0
BBX 4 4 0 3
BITMAP
60
F0
F0
60
ENDCHAR

STARTCHAR char150
ENCODING 150
SWIDTH 43 0
DWIDTH 7 0
BBX 6 1 0 3
BITMAP
FC
ENDCHAR

STARTCHAR char151
ENCODING 151
SWIDTH 61 0
DWIDTH 10 0
BBX 9 1 0 4
BITMAP
FF80
ENDCHAR

STARTCHAR char152
ENCODING 152
SWIDTH 0 0
DWIDTH 0 0
BBX 6 2 -3 8
BITMAP
78
88
ENDCHAR

STARTCHAR char153
ENCODING 153
SWIDTH 17 0
DWIDTH 13 0
BBX 12 6 0 4
BITMAP
FC30
AA60
2660
2760
25A0
64F0
ENDCHAR

STARTCHAR char154
ENCODING 154
SWIDTH 29 0
DWIDTH 15 0
BBX 0 0 0 0
BITMAP
ENDCHAR

STARTCHAR char155
ENCODING 155
SWIDTH 30 0
DWIDTH 5 0
BBX 3 4 1 2
BITMAP
C0
60
60
80
ENDCHAR

STARTCHAR char156
ENCODING 156
SWIDTH 11 0
DWIDTH 12 0
BBX 12 7 0 0
BITMAP
39C0
4620
83E0
8200
8210
4720
39C0
ENDCHAR

STARTCHAR char157
ENCODING 157
SWIDTH 29 0
DWIDTH 15 0
BBX 0 0 0 0
BITMAP
ENDCHAR

STARTCHAR char159
ENCODING 159
SWIDTH 5 0
DWIDTH 11 0
BBX 10 13 0 0
BITMAP
1200
1200
0000
60C0
2100
1100
0A00
0C00
0800
0800
0800
0800
1E00
ENDCHAR

STARTCHAR char160
ENCODING 160
SWIDTH 43 0
DWIDTH 7 0
BBX 0 0 0 0
BITMAP
ENDCHAR

STARTCHAR char161
ENCODING 161
SWIDTH 24 0
DWIDTH 4 0
BBX 2 10 1 0
BITMAP
80
80
00
80
80
80
80
80
80
80
ENDCHAR

STARTCHAR char162
ENCODING 162
SWIDTH 36 0
DWIDTH 6 0
BBX 6 11 0 -2
BITMAP
10
10
78
5C
90
90
D4
F4
78
10
10
ENDCHAR

STARTCHAR char163
ENCODING 163
SWIDTH 43 0
DWIDTH 7 0
BBX 7 10 0 0
BITMAP
1C
24
20
30
78
30
10
10
E2
FC
ENDCHAR

STARTCHAR char164
ENCODING 164
SWIDTH 0 0
DWIDTH 0 0
BBX 3 2 -1 11
BITMAP
40
80
ENDCHAR

STARTCHAR char165
ENCODING 165
SWIDTH 0 0
DWIDTH 0 0
BBX 4 2 -2 11
BITMAP
90
60
ENDCHAR

STARTCHAR char166
ENCODING 166
SWIDTH 29 0
DWIDTH 15 0
BBX 0 0 0 0
BITMAP
ENDCHAR

STARTCHAR char167
ENCODING 167
SWIDTH 30 0
DWIDTH 5 0
BBX 5 12 0 -2
BITMAP
70
50
40
20
D0
88
88
58
20
10
50
70
ENDCHAR

STARTCHAR char168
ENCODING 168
SWIDTH 0 0
DWIDTH 0 0
BBX 4 2 -2 8
BITMAP
90
90
ENDCHAR

STARTCHAR char169
ENCODING 169
SWIDTH 5 0
DWIDTH 11 0
BBX 10 10 0 0
BITMAP
0E00
3100
4080
4F40
9140
9040
9040
4E40
6080
1F00
ENDCHAR

STARTCHAR char170
ENCODING 170
SWIDTH 0 0
DWIDTH 0 0
BBX 4 2 -2 11
BITMAP
90
90
ENDCHAR

STARTCHAR char171
ENCODING 171
SWIDTH 43 0
DWIDTH 7 0
BBX 6 6 0 1
BITMAP
24
44
C8
C8
48
24
ENDCHAR

STARTCHAR char172
ENCODING 172
SWIDTH 61 0
DWIDTH 10 0
BBX 9 4 0 0
BITMAP
FF80
0080
0080
0080
ENDCHAR

STARTCHAR char173
ENCODING 173
SWIDTH 29 0
DWIDTH 15 0
BBX 0 0 0 0
BITMAP
ENDCHAR

STARTCHAR char174
ENCODING 174
SWIDTH 5 0
DWIDTH 11 0
BBX 10 10 0 0
BITMAP
0E00
3100
5E80
5240
9240
9C40
9640
5B40
6080
1F00
ENDCHAR

STARTCHAR char175
ENCODING 175
SWIDTH 29 0
DWIDTH 15 0
BBX 0 0 0 0
BITMAP
ENDCHAR

STARTCHAR char176
ENCODING 176
SWIDTH 36 0
DWIDTH 6 0
BBX 5 5 0 5
BITMAP
30
C8
88
C8
30
ENDCHAR

STARTCHAR char177
ENCODING 177
SWIDTH 49 0
DWIDTH 8 0
BBX 7 9 0 0
BITMAP
10
10
10
FE
10
10
10
00
FE
ENDCHAR

STARTCHAR char178
ENCODING 178
SWIDTH 29 0
DWIDTH 15 0
BBX 0 0 0 0
BITMAP
ENDCHAR

STARTCHAR char179
ENCODING 179
SWIDTH 29 0
DWIDTH 15 0
BBX 0 0 0 0
BITMAP
ENDCHAR

STARTCHAR char180
ENCODING 180
SWIDTH 0 0
DWIDTH 0 0
BBX 3 2 -1 8
BITMAP
40
40
ENDCHAR

STARTCHAR char181
ENCODING 181
SWIDTH 29 0
DWIDTH 15 0
BBX 0 0 0 0
BITMAP
ENDCHAR

STARTCHAR char182
ENCODING 182
SWIDTH 61 0
DWIDTH 10 0
BBX 7 12 1 -2
BITMAP
3E
64
E4
E4
64
24
24
24
24
24
24
24
ENDCHAR

STARTCHAR char183
ENCODING 183
SWIDTH 12 0
DWIDTH 2 0
BBX 1 2 1 3
BITMAP
80
80
ENDCHAR

STARTCHAR char184
ENCODING 184
SWIDTH 0 0
DWIDTH 0 0
BBX 2 3 -1 -3
BITMAP
40
C0
C0
ENDCHAR

STARTCHAR char186
ENCODING 186
SWIDTH 0 0
DWIDTH 0 0
BBX 6 2 -3 11
BITMAP
78
50
ENDCHAR

STARTCHAR char187
ENCODING 187
SWIDTH 43 0
DWIDTH 7 0
BBX 7 6 0 1
BITMAP
88
48
24
24
48
48
ENDCHAR

STARTCHAR char188
ENCODING 188
SWIDTH 29 0
DWIDTH 15 0
BBX 0 0 0 0
BITMAP
ENDCHAR

STARTCHAR char189
ENCODING 189
SWIDTH 29 0
DWIDTH 15 0
BBX 0 0 0 0
BITMAP
ENDCHAR

STARTCHAR char191
ENCODING 191
SWIDTH 36 0
DWIDTH 6 0
BBX 4 10 1 0
BITMAP
40
40
40
40
40
C0
80
90
90
60
ENDCHAR

STARTCHAR char192
ENCODING 192
SWIDTH 5 0
DWIDTH 11 0
BBX 10 13 0 0
BITMAP
0800
0400
0000
0400
0C00
0C00
1400
1200
1200
3F00
2100
2180
41C0
ENDCHAR

STARTCHAR char193
ENCODING 193
SWIDTH 5 0
DWIDTH 11 0
BBX 10 13 0 0
BITMAP
0C00
0800
0000
0400
0C00
0C00
1400
1200
1200
3F00
2100
2180
41C0
ENDCHAR

STARTCHAR char194
ENCODING 194
SWIDTH 5 0
DWIDTH 11 0
BBX 10 13 0 0
BITMAP
0C00
1200
0000
0400
0C00
0C00
1400
1200
1200
3F00
2100
2180
41C0
ENDCHAR

STARTCHAR char195
ENCODING 195
SWIDTH 5 0
DWIDTH 11 0
BBX 10 13 0 0
BITMAP
1E00
1400
0000
0400
0C00
0C00
1400
1200
1200
3F00
2100
2180
41C0
ENDCHAR

STARTCHAR char196
ENCODING 196
SWIDTH 5 0
DWIDTH 11 0
BBX 11 13 0 0
BITMAP
1200
1200
0000
0400
0C00
0C00
0C00
1200
1200
3F00
4100
4180
E3C0
ENDCHAR

STARTCHAR char197
ENCODING 197
SWIDTH 5 0
DWIDTH 11 0
BBX 11 14 0 0
BITMAP
0E00
0A00
0E00
0000
0400
0C00
0E00
0E00
1200
1300
3F00
2180
2180
41C0
ENDCHAR

STARTCHAR char198
ENCODING 198
SWIDTH 23 0
DWIDTH 14 0
BBX 13 10 0 0
BITMAP
07F8
0608
0A00
0A10
13F0
1E10
2200
2208
4208
CFF8
ENDCHAR

STARTCHAR char199
ENCODING 199
SWIDTH 61 0
DWIDTH 10 0
BBX 9 13 1 -3
BITMAP
3F00
4100
4100
8000
8000
8000
8000
4080
6100
3E00
0800
1800
1800
ENDCHAR

STARTCHAR char200
ENCODING 200
SWIDTH 55 0
DWIDTH 9 0
BBX 9 13 0 0
BITMAP
1800
0800
0000
FF00
2100
2000
2200
3E00
2200
2000
2080
2180
FF00
ENDCHAR

STARTCHAR char201
ENCODING 201
SWIDTH 55 0
DWIDTH 9 0
BBX 9 13 0 0
BITMAP
0C00
1000
0000
FF00
2100
2000
2200
3E00
2200
2000
2080
2180
FF00
ENDCHAR

STARTCHAR char202
ENCODING 202
SWIDTH 55 0
DWIDTH 9 0
BBX 9 13 0 0
BITMAP
1800
1600
0000
FF00
2100
2000
2200
3E00
2200
2000
2080
2180
FF00
ENDCHAR

STARTCHAR char203
ENCODING 203
SWIDTH 55 0
DWIDTH 9 0
BBX 9 13 0 0
BITMAP
2400
2400
0000
FF00
2100
2000
2200
3E00
2200
2000
2080
2180
FF00
ENDCHAR

STARTCHAR char204
ENCODING 204
SWIDTH 30 0
DWIDTH 5 0
BBX 5 13 0 0
BITMAP
60
20
00
F8
20
20
20
20
20
20
20
20
F0
ENDCHAR

STARTCHAR char205
ENCODING 205
SWIDTH 30 0
DWIDTH 5 0
BBX 5 13 0 0
BITMAP
30
40
00
F8
20
20
20
20
20
20
20
20
F0
ENDCHAR

STARTCHAR char206
ENCODING 206
SWIDTH 30 0
DWIDTH 5 0
BBX 5 13 0 0
BITMAP
60
98
00
F8
20
20
20
20
20
20
20
20
F0
ENDCHAR

STARTCHAR char207
ENCODING 207
SWIDTH 30 0
DWIDTH 5 0
BBX 5 13 0 0
BITMAP
98
98
00
F8
20
20
20
20
20
20
20
20
F0
ENDCHAR

STARTCHAR char208
ENCODING 208
SWIDTH 29 0
DWIDTH 15 0
BBX 0 0 0 0
BITMAP
ENDCHAR

STARTCHAR char209
ENCODING 209
SWIDTH 5 0
DWIDTH 11 0
BBX 11 13 0 0
BITMAP
1E00
1400
0000
E080
7080
5080
5880
4C80
4680
4380
4180
4180
E080
ENDCHAR

STARTCHAR char210
ENCODING 210
SWIDTH 5 0
DWIDTH 11 0
BBX 9 13 1 0
BITMAP
3000
0800
0000
3C00
4200
8100
8100
8180
8100
8100
4100
4200
3C00
ENDCHAR

STARTCHAR char211
ENCODING 211
SWIDTH 5 0
DWIDTH 11 0
BBX 9 13 1 0
BITMAP
0800
1000
0000
3C00
4200
8100
8100
8180
8100
8100
4100
4200
3C00
ENDCHAR

STARTCHAR char212
ENCODING 212
SWIDTH 5 0
DWIDTH 11 0
BBX 9 13 1 0
BITMAP
1800
2400
0000
3C00
4200
8100
8100
8180
8100
8100
4100
4200
3C00
ENDCHAR

STARTCHAR char213
ENCODING 213
SWIDTH 5 0
DWIDTH 11 0
BBX 9 13 1 0
BITMAP
3C00
4800
0000
3C00
4200
8100
8100
8180
8100
8100
4100
4200
3C00
ENDCHAR

STARTCHAR char214
ENCODING 214
SWIDTH 5 0
DWIDTH 11 0
BBX 9 13 1 0
BITMAP
2400
2400
0000
3C00
4200
8100
8100
8180
8100
8100
4100
4200
3C00
ENDCHAR

STARTCHAR char215
ENCODING 215
SWIDTH 29 0
DWIDTH 15 0
BBX 0 0 0 0
BITMAP
ENDCHAR

STARTCHAR char216
ENCODING 216
SWIDTH 5 0
DWIDTH 11 0
BBX 9 10 1 0
BITMAP
3F80
4300
8580
8580
8880
9080
A080
4100
4300
BE00
ENDCHAR

STARTCHAR char217
ENCODING 217
SWIDTH 5 0
DWIDTH 11 0
BBX 11 13 0 0
BITMAP
0800
0400
60C0
60C0
2040
2040
2040
2040
2040
2040
2080
2180
1F00
ENDCHAR

STARTCHAR char218
ENCODING 218
SWIDTH 5 0
DWIDTH 11 0
BBX 11 13 0 0
BITMAP
0400
0800
60C0
60C0
2040
2040
2040
2040
2040
2040
2080
2180
1F00
ENDCHAR

STARTCHAR char219
ENCODING 219
SWIDTH 5 0
DWIDTH 11 0
BBX 11 13 0 0
BITMAP
0C00
0B00
60C0
60C0
2040
2040
2040
2040
2040
2040
2080
2180
1F00
ENDCHAR

STARTCHAR char220
ENCODING 220
SWIDTH 5 0
DWIDTH 11 0
BBX 11 13 0 0
BITMAP
1100
1100
01C0
6080
2080
2080
2080
2080
2080
2080
2080
2080
1F00
ENDCHAR

STARTCHAR char221
ENCODING 221
SWIDTH 29 0
DWIDTH 15 0
BBX 0 0 0 0
BITMAP
ENDCHAR

STARTCHAR char222
ENCODING 222
SWIDTH 29 0
DWIDTH 15 0
BBX 0 0 0 0
BITMAP
ENDCHAR

STARTCHAR char223
ENCODING 223
SWIDTH 49 0
DWIDTH 8 0
BBX 7 10 0 0
BITMAP
38
44
44
48
4C
46
46
42
54
FC
ENDCHAR

STARTCHAR char224
ENCODING 224
SWIDTH 43 0
DWIDTH 7 0
BBX 7 10 0 0
BITMAP
60
20
00
78
C8
08
78
88
98
EC
ENDCHAR

STARTCHAR char225
ENCODING 225
SWIDTH 43 0
DWIDTH 7 0
BBX 7 10 0 0
BITMAP
10
10
00
78
C8
08
78
88
98
EC
ENDCHAR

STARTCHAR char226
ENCODING 226
SWIDTH 43 0
DWIDTH 7 0
BBX 7 10 0 0
BITMAP
30
48
00
78
C8
08
78
88
98
EC
ENDCHAR

STARTCHAR char227
ENCODING 227
SWIDTH 43 0
DWIDTH 7 0
BBX 7 10 0 0
BITMAP
78
88
00
78
C8
08
78
88
98
EC
ENDCHAR

STARTCHAR char228
ENCODING 228
SWIDTH 43 0
DWIDTH 7 0
BBX 7 10 0 0
BITMAP
48
48
00
78
C8
08
78
88
98
EC
ENDCHAR

STARTCHAR char229
ENCODING 229
SWIDTH 43 0
DWIDTH 7 0
BBX 7 10 0 0
BITMAP
38
30
00
78
C8
08
38
C8
98
EC
ENDCHAR

STARTCHAR char230
ENCODING 230
SWIDTH 5 0
DWIDTH 11 0
BBX 10 7 0 0
BITMAP
3F80
4880
5FC0
6800
4840
DC40
6780
ENDCHAR

STARTCHAR char231
ENCODING 231
SWIDTH 36 0
DWIDTH 6 0
BBX 6 10 0 -3
BITMAP
38
4C
80
80
C4
64
38
10
30
70
ENDCHAR

STARTCHAR char232
ENCODING 232
SWIDTH 43 0
DWIDTH 7 0
BBX 6 10 0 0
BITMAP
20
20
00
78
84
FC
80
C4
64
38
ENDCHAR

STARTCHAR char233
ENCODING 233
SWIDTH 43 0
DWIDTH 7 0
BBX 6 10 0 0
BITMAP
10
10
00
78
84
FC
80
C4
64
38
ENDCHAR

STARTCHAR char234
ENCODING 234
SWIDTH 43 0
DWIDTH 7 0
BBX 6 10 0 0
BITMAP
30
48
00
78
84
FC
80
C4
64
38
ENDCHAR

STARTCHAR char235
ENCODING 235
SWIDTH 43 0
DWIDTH 7 0
BBX 6 10 0 0
BITMAP
48
48
00
38
44
7C
80
44
44
38
ENDCHAR

STARTCHAR char236
ENCODING 236
SWIDTH 24 0
DWIDTH 4 0
BBX 4 10 0 0
BITMAP
80
80
00
40
40
40
40
40
40
F0
ENDCHAR

STARTCHAR char237
ENCODING 237
SWIDTH 24 0
DWIDTH 4 0
BBX 4 10 0 0
BITMAP
60
40
00
40
40
40
40
40
40
F0
ENDCHAR

STARTCHAR char238
ENCODING 238
SWIDTH 24 0
DWIDTH 4 0
BBX 5 10 -1 0
BITMAP
20
58
00
20
20
20
20
20
20
78
ENDCHAR

STARTCHAR char239
ENCODING 239
SWIDTH 24 0
DWIDTH 4 0
BBX 4 10 0 0
BITMAP
B0
B0
00
40
40
40
40
40
40
70
ENDCHAR

STARTCHAR char241
ENCODING 241
SWIDTH 49 0
DWIDTH 8 0
BBX 8 10 0 0
BITMAP
3C
44
00
5C
66
42
42
42
42
6F
ENDCHAR

STARTCHAR char242
ENCODING 242
SWIDTH 49 0
DWIDTH 8 0
BBX 6 10 1 0
BITMAP
20
20
00
78
8C
84
84
84
88
70
ENDCHAR

STARTCHAR char243
ENCODING 243
SWIDTH 49 0
DWIDTH 8 0
BBX 6 10 1 0
BITMAP
10
20
00
78
8C
84
84
84
88
70
ENDCHAR

STARTCHAR char244
ENCODING 244
SWIDTH 49 0
DWIDTH 8 0
BBX 6 10 1 0
BITMAP
70
48
00
78
8C
84
84
84
88
70
ENDCHAR

STARTCHAR char245
ENCODING 245
SWIDTH 49 0
DWIDTH 8 0
BBX 6 10 1 0
BITMAP
78
48
00
78
8C
84
84
84
88
70
ENDCHAR

STARTCHAR char246
ENCODING 246
SWIDTH 49 0
DWIDTH 8 0
BBX 7 10 0 0
BITMAP
24
24
00
3C
42
C2
C2
42
46
38
ENDCHAR

STARTCHAR char247
ENCODING 247
SWIDTH 49 0
DWIDTH 8 0
BBX 7 6 0 1
BITMAP
10
10
00
FE
10
10
ENDCHAR

STARTCHAR char248
ENCODING 248
SWIDTH 49 0
DWIDTH 8 0
BBX 6 9 1 -1
BITMAP
08
78
8C
94
A4
A4
48
70
40
ENDCHAR

STARTCHAR char249
ENCODING 249
SWIDTH 49 0
DWIDTH 8 0
BBX 8 10 0 0
BITMAP
30
10
00
CC
44
44
44
44
4C
76
ENDCHAR

STARTCHAR char250
ENCODING 250
SWIDTH 49 0
DWIDTH 8 0
BBX 8 10 0 0
BITMAP
08
10
00
CC
44
44
44
44
4C
76
ENDCHAR

STARTCHAR char251
ENCODING 251
SWIDTH 49 0
DWIDTH 8 0
BBX 8 10 0 0
BITMAP
38
24
00
CC
44
44
44
44
4C
76
ENDCHAR

STARTCHAR char252
ENCODING 252
SWIDTH 49 0
DWIDTH 8 0
BBX 8 10 0 0
BITMAP
28
68
00
CC
44
44
44
44
4C
36
ENDCHAR

STARTCHAR char255
ENCODING 255
SWIDTH 43 0
DWIDTH 7 0
BBX 7 12 0 -2
BITMAP
48
48
00
EE
44
24
28
28
30
10
20
C0
ENDCHAR
ENDFONT
